<?xml version="1.0" encoding="UTF-8" standalone="no"?>
<!-- Created with Inkscape (http://www.inkscape.org/) -->

<svg
   xmlns:dc="http://purl.org/dc/elements/1.1/"
   xmlns:cc="http://creativecommons.org/ns#"
   xmlns:rdf="http://www.w3.org/1999/02/22-rdf-syntax-ns#"
   xmlns:svg="http://www.w3.org/2000/svg"
   xmlns="http://www.w3.org/2000/svg"
   xmlns:xlink="http://www.w3.org/1999/xlink"
   xmlns:sodipodi="http://sodipodi.sourceforge.net/DTD/sodipodi-0.dtd"
   xmlns:inkscape="http://www.inkscape.org/namespaces/inkscape"
   width="1680"
   height="512"
   id="svg2"
   version="1.1"
   inkscape:version="0.48.2 r9819"
   sodipodi:docname="arvores.svg">
  <defs
     id="defs4">
    <linearGradient
       id="linearGradient4077">
      <stop
         style="stop-color:#6e9f31;stop-opacity:1;"
         offset="0"
         id="stop4079" />
      <stop
         id="stop4085"
         offset="0.12765957"
         style="stop-color:#b8dca0;stop-opacity:1;" />
      <stop
         style="stop-color:#78a90a;stop-opacity:1;"
         offset="0.35966501"
         id="stop4087" />
      <stop
         id="stop4089"
         offset="0.80244982"
         style="stop-color:#57881d;stop-opacity:1;" />
      <stop
         style="stop-color:#3e432b;stop-opacity:1;"
         offset="1"
         id="stop4081" />
    </linearGradient>
    <linearGradient
       id="linearGradient4013">
      <stop
         style="stop-color:#ea9f31;stop-opacity:1;"
         offset="0"
         id="stop4015" />
      <stop
         style="stop-color:#eabc31;stop-opacity:1;"
         offset="1"
         id="stop4017" />
    </linearGradient>
    <linearGradient
       id="linearGradient3977">
      <stop
         style="stop-color:#425ab6;stop-opacity:1;"
         offset="0"
         id="stop3979" />
      <stop
         style="stop-color:#4293b6;stop-opacity:1;"
         offset="1"
         id="stop3981" />
    </linearGradient>
    <linearGradient
       id="linearGradient3940">
      <stop
         style="stop-color:#428f29;stop-opacity:1;"
         offset="0"
         id="stop3942" />
      <stop
         style="stop-color:#42ce29;stop-opacity:1;"
         offset="1"
         id="stop3944" />
    </linearGradient>
    <linearGradient
       id="linearGradient3891">
      <stop
         id="stop3893"
         offset="0"
         style="stop-color:#70f129;stop-opacity:1;" />
      <stop
         style="stop-color:#42c029;stop-opacity:1;"
         offset="0.34089959"
         id="stop3895" />
      <stop
         id="stop3897"
         offset="1"
         style="stop-color:#429229;stop-opacity:1;" />
    </linearGradient>
    <linearGradient
       id="linearGradient3879">
      <stop
         style="stop-color:#429229;stop-opacity:1;"
         offset="0"
         id="stop3881" />
      <stop
         id="stop3887"
         offset="0.87234044"
         style="stop-color:#42c029;stop-opacity:1;" />
      <stop
         style="stop-color:#70f129;stop-opacity:1;"
         offset="1"
         id="stop3883" />
    </linearGradient>
    <linearGradient
       id="linearGradient3853">
      <stop
         style="stop-color:#13ad34;stop-opacity:1;"
         offset="0"
         id="stop3855" />
      <stop
         style="stop-color:#134634;stop-opacity:1;"
         offset="1"
         id="stop3857" />
    </linearGradient>
    <linearGradient
       id="linearGradient3817">
      <stop
         style="stop-color:#aefa48;stop-opacity:1;"
         offset="0"
         id="stop3819" />
      <stop
         style="stop-color:#3f5748;stop-opacity:1;"
         offset="1"
         id="stop3821" />
    </linearGradient>
    <linearGradient
       inkscape:collect="always"
       xlink:href="#linearGradient3817"
       id="linearGradient3823"
       x1="0"
       y1="655.98608"
       x2="0"
       y2="1052.3622"
       gradientUnits="userSpaceOnUse" />
    <linearGradient
       inkscape:collect="always"
       xlink:href="#linearGradient3853"
       id="linearGradient3859"
       x1="0"
       y1="837.49463"
       x2="0"
       y2="1052.3622"
       gradientUnits="userSpaceOnUse" />
    <radialGradient
       inkscape:collect="always"
       xlink:href="#linearGradient3891"
       id="radialGradient3903"
       gradientUnits="userSpaceOnUse"
       gradientTransform="matrix(0.73759396,-0.53386725,0.85031408,1.1747987,292.33595,562.46024)"
       cx="1367.6201"
       cy="-255.95721"
       fx="1367.6201"
       fy="-255.95721"
       r="783.34277" />
    <radialGradient
       inkscape:collect="always"
       xlink:href="#linearGradient3891"
       id="radialGradient3911"
       gradientUnits="userSpaceOnUse"
       gradientTransform="matrix(0.73759396,-0.53386725,0.85031408,1.1747987,292.33595,562.46024)"
       cx="1367.6201"
       cy="-255.95721"
       fx="1367.6201"
       fy="-255.95721"
       r="783.34277" />
    <linearGradient
       inkscape:collect="always"
       xlink:href="#linearGradient3940"
       id="linearGradient3971"
       gradientUnits="userSpaceOnUse"
       x1="-1438"
       y1="376.04442"
       x2="-1198"
       y2="376.04442" />
    <linearGradient
       inkscape:collect="always"
       xlink:href="#linearGradient3940"
       id="linearGradient3973"
       gradientUnits="userSpaceOnUse"
       x1="-1255"
       y1="1075.7339"
       x2="-1152.9982"
       y2="1075.7339" />
    <linearGradient
       inkscape:collect="always"
       xlink:href="#linearGradient3977"
       id="linearGradient4099"
       gradientUnits="userSpaceOnUse"
       x1="-663.76617"
       y1="518.01041"
       x2="-529.83008"
       y2="460.7348" />
    <linearGradient
       inkscape:collect="always"
       xlink:href="#linearGradient4013"
       id="linearGradient4101"
       gradientUnits="userSpaceOnUse"
       x1="-586.63444"
       y1="476.64465"
       x2="-381.39478"
       y2="376.9426" />
    <linearGradient
       inkscape:collect="always"
       xlink:href="#linearGradient4077"
       id="linearGradient4103"
       gradientUnits="userSpaceOnUse"
       gradientTransform="translate(3.8890873,569)"
       x1="-502.15"
       y1="235"
       x2="-409.85"
       y2="235" />
    <linearGradient
       inkscape:collect="always"
       xlink:href="#linearGradient4077"
       id="linearGradient4105"
       gradientUnits="userSpaceOnUse"
       x1="-502.15"
       y1="235"
       x2="-409.85"
       y2="235" />
  </defs>
  <sodipodi:namedview
     id="base"
     pagecolor="#ffffff"
     bordercolor="#666666"
     borderopacity="1.0"
     inkscape:pageopacity="0.0"
     inkscape:pageshadow="2"
     inkscape:zoom="0.1767767"
     inkscape:cx="1023.5041"
     inkscape:cy="310.34984"
     inkscape:document-units="px"
     inkscape:current-layer="layer1"
     showgrid="false"
     borderlayer="true"
     inkscape:showpageshadow="false"
     inkscape:window-width="1515"
     inkscape:window-height="745"
     inkscape:window-x="281"
     inkscape:window-y="270"
     inkscape:window-maximized="0"
     showguides="true"
     inkscape:guide-bbox="true">
    <sodipodi:guide
       orientation="1,0"
       position="0,30.5"
       id="guide3785" />
    <sodipodi:guide
       orientation="0,1"
       position="59.25,0"
       id="guide3787" />
    <sodipodi:guide
       orientation="1,0"
       position="1680,18.5"
       id="guide3789" />
  </sodipodi:namedview>
  <metadata
     id="metadata7">
    <rdf:RDF>
      <cc:Work
         rdf:about="">
        <dc:format>image/svg+xml</dc:format>
        <dc:type
           rdf:resource="http://purl.org/dc/dcmitype/StillImage" />
        <dc:title />
      </cc:Work>
    </rdf:RDF>
  </metadata>
  <g
     inkscape:label="Camada 1"
     inkscape:groupmode="layer"
     id="layer1"
     transform="translate(0,-540.36218)">
    <g
       id="g3825">
      <path
         sodipodi:nodetypes="cccccccccccccccccc"
         inkscape:connector-curvature="0"
         id="path3015"
         d="m -8,667.45519 c 23.567665,-3.17683 58.178735,5.25073 71.720967,48.1628 22.122735,-18.30419 42.873213,-14.65516 63.255773,-5.11628 6.8712,-25.52037 85.41613,-148.60825 173.48839,-38.13954 22.97602,-18.45269 64.27381,-53.58942 117.67437,11.16279 48.26353,-104.57014 185.34645,-107.2508 190.69771,25.5814 45.83027,-39.23599 61.7848,-14.12439 86.51166,-7.90698 29.58129,-154.43257 183.84596,-111.70799 199.53483,-33.48838 32.59592,-22.61035 99.95359,-16.25063 113.2723,42.75766 1.5921,8.40535 18.6607,5.52625 13.3191,-9.0863 -38.51348,-154.88852 132.926,-163.78147 171.083,-99.71786 60.1212,-78.14479 115.0368,-43.04348 139.5349,1.86046 62.4523,-30.61419 173.1546,-6.1552 185.1163,96.27907 7.0155,-24.03283 40.8663,-20.26287 42.8818,-9.73439 23.5031,-29.90638 82.7203,-49.11007 131.9089,-34.77723 l 0,397.06979 -1700,0 z"
         style="fill:#80d248;stroke:#006900;stroke-width:4.55813932000000044;stroke-linecap:round;stroke-linejoin:round;stroke-miterlimit:4;stroke-opacity:1;stroke-dasharray:none;fill-opacity:1" />
      <path
         sodipodi:nodetypes="ccccccccccccccccccccccccccccccccccccccccc"
         inkscape:connector-curvature="0"
         id="path3791"
         d="m 1263.8125,579.625 c -23.1877,2.18895 -40.1498,20.82912 -53.5,38.375 -12.2871,11.73353 -35.4163,6.8095 -42.0313,-8.75 -21.0115,-21.82983 -55.2628,-25.20677 -83.1874,-17.1875 -25.3429,8.15506 -45.0954,32.66307 -45.0938,59.65625 -1.7121,22.50214 7.4409,44.53768 4.9375,66.90625 -7.574,22.03019 -42.5718,27.87414 -55.4375,7.625 -5.67326,-15.10675 -10.89415,-33.41322 -26.90625,-40.78125 -19.7822,-10.18433 -44.01877,-6.0054 -62.4375,5.1875 -16.05416,3.16093 -30.15305,-12.00308 -31.78125,-27.125 C 849.87134,623.59018 793.06225,608.01795 757.28125,634 c -24.41234,17.85766 -33.38453,48.27135 -40.59375,76.21875 -6.67884,14.75819 -27.25472,18.36348 -40.15581,9.67006 -10.6233,-5.33443 -24.39745,-12.70597 -35.56294,-4.67006 -11.34026,7.39539 -22.98278,19.86301 -37.90625,16.1875 -14.1594,-3.69487 -20.14312,-19.90269 -19.1875,-33.28125 -1.64973,-26.14514 -15.43107,-54.30052 -41.21875,-63.8125 -29.56068,-9.57945 -62.16355,4.70016 -81.84375,27.34375 -11.70701,11.91512 -17.37686,28.60167 -28.96875,40.59375 -12.05894,9.18059 -29.73865,2.33741 -37.74454,-9.10301 -10.64354,-14.98057 -30.19834,-26.87181 -48.97421,-21.45949 -16.92083,6.35005 -29.48587,24.5265 -49.03125,23.40625 -18.44492,-5.10989 -25.15102,-25.49911 -41.25,-34.1875 -16.93573,-12.03128 -41.53874,-13.2303 -58.46875,-0.15625 -23.91153,14.31572 -38.2205,39.34408 -50.4375,63.4375 -8.97964,10.75636 -26.27757,12.30248 -37.5,4.15625 -11.537953,-4.22647 -24.399025,-0.0818 -33.125,7.9375 C 61.853026,743.26341 43.759775,734.88438 39.936814,720.31544 36.241626,710.11625 4.470039,699.90398 -5.96875,695.4375 c -6.124062,-5.10096 -3.41495,4.20911 -3.953273,8.09374 -0.154621,108.28117 -0.045,240.54969 -0.07798,348.83096 550.666673,0 1157.333303,0 1708.000003,0 -0.1914,-117.73946 0.3837,-259.46758 -0.3125,-377.20595 -33.6439,-3.91516 -99.5743,7.84411 -122.1224,33.24276 -10.1457,7.02795 -24.5921,5.17581 -33.7526,-2.36776 -6.1965,3.75785 -7.1957,13.45196 -15.2813,14.90625 -17.5632,6.64842 -37.6624,-10.50269 -35.0566,-28.83237 -6.2931,-39.40465 -42.0903,-69.27753 -80.5831,-75.22379 -25.6323,-4.71502 -51.8247,0.86916 -75.9853,9.36866 -12.4931,2.53891 -22.1519,-7.9877 -27.9998,-17.57693 -9.0205,-14.99652 -24.5221,-29.80544 -43.0939,-29.04807 z"
         style="fill:url(#linearGradient3823);fill-opacity:1;stroke:none" />
    </g>
    <g
       id="g3861">
      <path
         sodipodi:nodetypes="cccccccccccccccc"
         transform="translate(0,540.36218)"
         inkscape:connector-curvature="0"
         id="path3829"
         d="m -46,530 2,-212 c 12.666667,-56.33333 102.666667,-53 132,-8 55.04705,-43.83213 142.18212,-6.94912 138,68 -1.20772,-41.62807 50.70723,-54.86949 60,-2 -13.02014,-155.45679 171.53501,-143.92324 184,-76 55.66667,-48.33333 112.33333,-4.66667 104,56 67.55935,-204.48431 253.92556,-115.69763 268,-48 32.10294,-84.5161 171.5414,-116.4378 188,50 -6.0986,75.20646 43.4086,78.45732 40,54 -24.7736,-178.80923 108.6832,-180.40162 172,-130 72.5255,-22.2591 129.2379,-0.006 128,114 8.3333,-126.66667 94.6667,-154.33333 154,-128 47.9256,-73.46125 168,-62.43777 168,68 l 0,194 z"
         style="fill:#137434;stroke:#0d4b00;stroke-width:7.79999999999999982;stroke-linecap:round;stroke-linejoin:round;stroke-opacity:1;fill-opacity:1;stroke-miterlimit:4;stroke-dasharray:none" />
      <path
         sodipodi:nodetypes="cccccccccccccccccccccccccccccccccccccccccccc"
         inkscape:connector-curvature="0"
         id="path3831"
         d="m 1602.2812,783.03125 c -27.4176,0.32555 -50.9679,19.09322 -66.0624,40.6875 -10.2905,7.91132 -23.7178,1.62948 -34.375,-2 -39.2269,-11.08772 -83.1289,13.74257 -97.1876,51.25 -11.2223,23.13396 -11.6746,49.61464 -18.2812,74.1875 -10.422,15.60712 -38.7084,4.68419 -36.9375,-13.6875 1.057,-28.77194 -2.2782,-59.90561 -20.875,-82.96875 -17.2131,-18.45196 -45.7621,-18.82544 -68.5562,-12.0738 -11.0534,3.58057 -24.1634,4.72324 -33.8261,-3.04506 -24.5676,-17.45353 -56.742,-26.33861 -86.3677,-18.63114 -24.4025,5.9852 -41.2956,27.69586 -47.8125,51 -8.4619,27.26183 -3.4211,56.35761 -3.0453,84.46865 -0.055,8.48783 0.1615,18.07959 -7.0485,24.03135 -14.0457,14.12346 -40.0275,12.45404 -51.9062,-3.65625 -18.4103,-18.5606 -21.4383,-46.51608 -20.4583,-71.43615 -1.503,-33.32332 -11.90772,-69.02571 -38.26045,-91.0951 -21.67531,-16.01199 -52.56401,-13.22466 -74.25,1.3125 -18.5196,11.45094 -31.18438,30.30492 -39.9375,49.65625 -10.54107,12.37203 -33.77648,5.03475 -35.53125,-11.125 -11.95204,-28.82073 -41.2631,-45.4467 -69.625,-54.84375 C 713.22711,782.82109 667.1722,791.91265 639,821.875 c -23.36647,23.25978 -36.74042,54.46912 -48.3125,84.875 -6.63814,11.01293 -23.51292,10.63095 -31.34375,1.15625 -5.90132,-6.01251 -6.89358,-15.11371 -4.4375,-22.84375 1.43092,-20.38472 -12.49562,-43.3599 -34.03125,-45.34375 -17.83432,-1.1122 -31.8104,11.75857 -46.34375,19.75 -13.55655,2.63922 -24.97472,-10.04416 -27.21875,-22.4375 -12.49348,-18.88964 -36.94244,-23.56693 -58.03105,-24.4575 -33.85237,-0.68214 -69.46529,19.7922 -79.06726,53.57204 -6.34512,19.2338 -3.24281,40.16255 -7.08919,59.76046 -9.26479,16.21985 -38.76464,7.92064 -37.90625,-10.875 -0.46915,-6.00638 -5.53414,-14.88616 -12.65625,-12.53125 -8.95774,6.5029 -5.81937,21.35966 -16.4375,26.6875 -13.98702,7.7253 -33.77109,-6.34787 -30.28125,-22.1875 -2.26689,-35.28397 -40.37958,-61.8843 -74.4375,-54.78125 -15.86489,2.34767 -28.62068,13.44122 -43.78125,17.65625 -14.115644,-0.60885 -19.32627,-16.21264 -30.5,-22.15625 -21.922994,-14.60602 -53.9941243,-16.4585 -74.78125,1.1875 -11.087188,13.19155 -5.523128,31.47709 -6.727197,47.09371 -0.434684,51.45835 -0.869369,112.91664 -1.304053,164.37504 565.83333,0 1131.6667,0 1697.5,0 -0.9344,-68.99609 3.215,-148.28316 -2.875,-217.0625 -5.3683,-25.72273 -22.3486,-51.67641 -48.9375,-58.28125 -5.7955,-1.47937 -11.7193,-2.16913 -17.7188,-2 z"
         style="fill:url(#linearGradient3859);fill-opacity:1;stroke:none" />
    </g>
    <rect
       style="opacity:1;fill:#73985b;fill-opacity:1;stroke:#0d5700;stroke-opacity:1;stroke-width:19.39999999999999858;stroke-miterlimit:4;stroke-dasharray:none"
       id="rect3865"
       width="1764"
       height="144"
       x="-40"
       y="462"
       transform="translate(0,540.36218)" />
  </g>
</svg>
