<?xml version="1.0" encoding="UTF-8" standalone="no"?>
<!-- Created with Inkscape (http://www.inkscape.org/) -->

<svg
   xmlns:dc="http://purl.org/dc/elements/1.1/"
   xmlns:cc="http://creativecommons.org/ns#"
   xmlns:rdf="http://www.w3.org/1999/02/22-rdf-syntax-ns#"
   xmlns:svg="http://www.w3.org/2000/svg"
   xmlns="http://www.w3.org/2000/svg"
   xmlns:xlink="http://www.w3.org/1999/xlink"
   xmlns:sodipodi="http://sodipodi.sourceforge.net/DTD/sodipodi-0.dtd"
   xmlns:inkscape="http://www.inkscape.org/namespaces/inkscape"
   width="1680"
   height="512"
   id="svg2"
   version="1.1"
   inkscape:version="0.48.2 r9819"
   sodipodi:docname="fore2 (cópia).svg">
  <defs
     id="defs4">
    <linearGradient
       id="linearGradient4077">
      <stop
         style="stop-color:#6e9f31;stop-opacity:1;"
         offset="0"
         id="stop4079" />
      <stop
         id="stop4085"
         offset="0.12765957"
         style="stop-color:#b8dca0;stop-opacity:1;" />
      <stop
         style="stop-color:#78a90a;stop-opacity:1;"
         offset="0.35966501"
         id="stop4087" />
      <stop
         id="stop4089"
         offset="0.80244982"
         style="stop-color:#57881d;stop-opacity:1;" />
      <stop
         style="stop-color:#3e432b;stop-opacity:1;"
         offset="1"
         id="stop4081" />
    </linearGradient>
    <linearGradient
       id="linearGradient4013">
      <stop
         style="stop-color:#ea9f31;stop-opacity:1;"
         offset="0"
         id="stop4015" />
      <stop
         style="stop-color:#eabc31;stop-opacity:1;"
         offset="1"
         id="stop4017" />
    </linearGradient>
    <linearGradient
       id="linearGradient3977">
      <stop
         style="stop-color:#425ab6;stop-opacity:1;"
         offset="0"
         id="stop3979" />
      <stop
         style="stop-color:#4293b6;stop-opacity:1;"
         offset="1"
         id="stop3981" />
    </linearGradient>
    <linearGradient
       id="linearGradient3940">
      <stop
         style="stop-color:#428f29;stop-opacity:1;"
         offset="0"
         id="stop3942" />
      <stop
         style="stop-color:#42ce29;stop-opacity:1;"
         offset="1"
         id="stop3944" />
    </linearGradient>
    <linearGradient
       id="linearGradient3891">
      <stop
         id="stop3893"
         offset="0"
         style="stop-color:#70f129;stop-opacity:1;" />
      <stop
         style="stop-color:#42c029;stop-opacity:1;"
         offset="0.34089959"
         id="stop3895" />
      <stop
         id="stop3897"
         offset="1"
         style="stop-color:#429229;stop-opacity:1;" />
    </linearGradient>
    <linearGradient
       id="linearGradient3879">
      <stop
         style="stop-color:#429229;stop-opacity:1;"
         offset="0"
         id="stop3881" />
      <stop
         id="stop3887"
         offset="0.87234044"
         style="stop-color:#42c029;stop-opacity:1;" />
      <stop
         style="stop-color:#70f129;stop-opacity:1;"
         offset="1"
         id="stop3883" />
    </linearGradient>
    <linearGradient
       id="linearGradient3853">
      <stop
         style="stop-color:#13ad34;stop-opacity:1;"
         offset="0"
         id="stop3855" />
      <stop
         style="stop-color:#134634;stop-opacity:1;"
         offset="1"
         id="stop3857" />
    </linearGradient>
    <linearGradient
       id="linearGradient3817">
      <stop
         style="stop-color:#aefa48;stop-opacity:1;"
         offset="0"
         id="stop3819" />
      <stop
         style="stop-color:#3f5748;stop-opacity:1;"
         offset="1"
         id="stop3821" />
    </linearGradient>
    <linearGradient
       inkscape:collect="always"
       xlink:href="#linearGradient3977"
       id="linearGradient4099"
       gradientUnits="userSpaceOnUse"
       x1="-663.76617"
       y1="518.01041"
       x2="-529.83008"
       y2="460.7348" />
    <linearGradient
       inkscape:collect="always"
       xlink:href="#linearGradient4013"
       id="linearGradient4101"
       gradientUnits="userSpaceOnUse"
       x1="-586.63444"
       y1="476.64465"
       x2="-381.39478"
       y2="376.9426" />
    <linearGradient
       inkscape:collect="always"
       xlink:href="#linearGradient4077"
       id="linearGradient4103"
       gradientUnits="userSpaceOnUse"
       gradientTransform="translate(3.8890873,569)"
       x1="-502.15"
       y1="235"
       x2="-409.85"
       y2="235" />
    <linearGradient
       inkscape:collect="always"
       xlink:href="#linearGradient4077"
       id="linearGradient4105"
       gradientUnits="userSpaceOnUse"
       x1="-502.15"
       y1="235"
       x2="-409.85"
       y2="235" />
    <linearGradient
       inkscape:collect="always"
       xlink:href="#linearGradient4013"
       id="linearGradient3107"
       gradientUnits="userSpaceOnUse"
       x1="-586.63444"
       y1="476.64465"
       x2="-381.39478"
       y2="376.9426" />
    <linearGradient
       inkscape:collect="always"
       xlink:href="#linearGradient4013"
       id="linearGradient3165"
       gradientUnits="userSpaceOnUse"
       x1="-586.63444"
       y1="476.64465"
       x2="-381.39478"
       y2="376.9426" />
    <linearGradient
       inkscape:collect="always"
       xlink:href="#linearGradient4013"
       id="linearGradient3167"
       gradientUnits="userSpaceOnUse"
       x1="-586.63444"
       y1="476.64465"
       x2="-381.39478"
       y2="376.9426" />
  </defs>
  <sodipodi:namedview
     id="base"
     pagecolor="#ffffff"
     bordercolor="#666666"
     borderopacity="1.0"
     inkscape:pageopacity="0.0"
     inkscape:pageshadow="2"
     inkscape:zoom="0.50000001"
     inkscape:cx="778.84516"
     inkscape:cy="202.86961"
     inkscape:document-units="px"
     inkscape:current-layer="layer1"
     showgrid="false"
     borderlayer="true"
     inkscape:showpageshadow="false"
     inkscape:window-width="1515"
     inkscape:window-height="745"
     inkscape:window-x="130"
     inkscape:window-y="147"
     inkscape:window-maximized="0"
     showguides="true"
     inkscape:guide-bbox="true">
    <sodipodi:guide
       orientation="1,0"
       position="0,30.5"
       id="guide3785" />
    <sodipodi:guide
       orientation="0,1"
       position="59.25,0"
       id="guide3787" />
    <sodipodi:guide
       orientation="1,0"
       position="1680,18.5"
       id="guide3789" />
  </sodipodi:namedview>
  <metadata
     id="metadata7">
    <rdf:RDF>
      <cc:Work
         rdf:about="">
        <dc:format>image/svg+xml</dc:format>
        <dc:type
           rdf:resource="http://purl.org/dc/dcmitype/StillImage" />
        <dc:title />
      </cc:Work>
    </rdf:RDF>
  </metadata>
  <g
     inkscape:label="Camada 1"
     inkscape:groupmode="layer"
     id="layer1"
     transform="translate(0,-540.36218)">
    <g
       id="g4095"
       transform="matrix(1.4187113,0,0,1.4187113,819.98185,-461.88861)">
      <rect
         style="fill:url(#linearGradient4103);fill-opacity:1;stroke:#29521a;stroke-width:2.29999995;stroke-linecap:round;stroke-linejoin:round;stroke-miterlimit:4;stroke-opacity:1;stroke-dasharray:none"
         id="rect4091"
         width="80.454056"
         height="160.33987"
         x="-497.1109"
         y="788"
         ry="0" />
      <rect
         ry="0"
         transform="translate(0,540.36218)"
         y="219"
         x="-501"
         height="32"
         width="90"
         id="rect4075"
         style="fill:url(#linearGradient4105);fill-opacity:1;stroke:#29521a;stroke-width:2.29999995;stroke-linecap:round;stroke-linejoin:round;stroke-miterlimit:4;stroke-opacity:1;stroke-dasharray:none" />
    </g>
    <g
       id="g4027"
       transform="matrix(0.93569638,0,0,0.79614104,575.27871,144.3564)">
      <rect
         ry="10.606598"
         transform="translate(0,540.36218)"
         y="360.67914"
         x="-585.48444"
         height="231.93103"
         width="200.11122"
         id="rect4011"
         style="fill:url(#linearGradient4101);fill-opacity:1;stroke:#88551a;stroke-width:2.29999995;stroke-linecap:round;stroke-linejoin:round;stroke-miterlimit:4;stroke-opacity:1;stroke-dasharray:none" />
      <g
         id="g3989">
        <path
           sodipodi:type="arc"
           style="fill:#eae9ec;fill-opacity:1;stroke:#514f4f;stroke-width:2.20000005;stroke-linecap:round;stroke-linejoin:round;stroke-miterlimit:4;stroke-opacity:1;stroke-dasharray:none"
           id="path3985"
           sodipodi:cx="-573.625"
           sodipodi:cy="373.875"
           sodipodi:rx="6.625"
           sodipodi:ry="6.625"
           d="m -567,373.875 c 0,3.65889 -2.96611,6.625 -6.625,6.625 -3.65889,0 -6.625,-2.96611 -6.625,-6.625 0,-3.65889 2.96611,-6.625 6.625,-6.625 3.65889,0 6.625,2.96611 6.625,6.625 z"
           transform="translate(0,540.36218)" />
        <path
           style="fill:none;stroke:#514f4f;stroke-width:2.29999995;stroke-linecap:butt;stroke-linejoin:miter;stroke-miterlimit:4;stroke-opacity:1;stroke-dasharray:none"
           d="m -578.32496,378.71037 9.28078,-9.28077"
           id="path3987"
           inkscape:connector-curvature="0"
           transform="translate(0,540.36218)" />
      </g>
      <g
         transform="translate(176.5,0)"
         id="g3993">
        <path
           transform="translate(0,540.36218)"
           d="m -567,373.875 c 0,3.65889 -2.96611,6.625 -6.625,6.625 -3.65889,0 -6.625,-2.96611 -6.625,-6.625 0,-3.65889 2.96611,-6.625 6.625,-6.625 3.65889,0 6.625,2.96611 6.625,6.625 z"
           sodipodi:ry="6.625"
           sodipodi:rx="6.625"
           sodipodi:cy="373.875"
           sodipodi:cx="-573.625"
           id="path3995"
           style="fill:#eae9ec;fill-opacity:1;stroke:#514f4f;stroke-width:2.20000005;stroke-linecap:round;stroke-linejoin:round;stroke-miterlimit:4;stroke-opacity:1;stroke-dasharray:none"
           sodipodi:type="arc" />
        <path
           transform="translate(0,540.36218)"
           inkscape:connector-curvature="0"
           id="path3997"
           d="m -578.32496,378.71037 9.28078,-9.28077"
           style="fill:none;stroke:#514f4f;stroke-width:2.29999995;stroke-linecap:butt;stroke-linejoin:miter;stroke-miterlimit:4;stroke-opacity:1;stroke-dasharray:none" />
      </g>
      <g
         transform="translate(0,207.18229)"
         id="g3999">
        <path
           transform="translate(0,540.36218)"
           d="m -567,373.875 c 0,3.65889 -2.96611,6.625 -6.625,6.625 -3.65889,0 -6.625,-2.96611 -6.625,-6.625 0,-3.65889 2.96611,-6.625 6.625,-6.625 3.65889,0 6.625,2.96611 6.625,6.625 z"
           sodipodi:ry="6.625"
           sodipodi:rx="6.625"
           sodipodi:cy="373.875"
           sodipodi:cx="-573.625"
           id="path4001"
           style="fill:#eae9ec;fill-opacity:1;stroke:#514f4f;stroke-width:2.20000005;stroke-linecap:round;stroke-linejoin:round;stroke-miterlimit:4;stroke-opacity:1;stroke-dasharray:none"
           sodipodi:type="arc" />
        <path
           transform="translate(0,540.36218)"
           inkscape:connector-curvature="0"
           id="path4003"
           d="m -578.32496,378.71037 9.28078,-9.28077"
           style="fill:none;stroke:#514f4f;stroke-width:2.29999995;stroke-linecap:butt;stroke-linejoin:miter;stroke-miterlimit:4;stroke-opacity:1;stroke-dasharray:none" />
      </g>
      <g
         id="g4005"
         transform="translate(176.5,207.18229)">
        <path
           sodipodi:type="arc"
           style="fill:#eae9ec;fill-opacity:1;stroke:#514f4f;stroke-width:2.20000005;stroke-linecap:round;stroke-linejoin:round;stroke-miterlimit:4;stroke-opacity:1;stroke-dasharray:none"
           id="path4007"
           sodipodi:cx="-573.625"
           sodipodi:cy="373.875"
           sodipodi:rx="6.625"
           sodipodi:ry="6.625"
           d="m -567,373.875 c 0,3.65889 -2.96611,6.625 -6.625,6.625 -3.65889,0 -6.625,-2.96611 -6.625,-6.625 0,-3.65889 2.96611,-6.625 6.625,-6.625 3.65889,0 6.625,2.96611 6.625,6.625 z"
           transform="translate(0,540.36218)" />
        <path
           style="fill:none;stroke:#514f4f;stroke-width:2.29999995;stroke-linecap:butt;stroke-linejoin:miter;stroke-miterlimit:4;stroke-opacity:1;stroke-dasharray:none"
           d="m -578.32496,378.71037 9.28078,-9.28077"
           id="path4009"
           inkscape:connector-curvature="0"
           transform="translate(0,540.36218)" />
      </g>
    </g>
    <g
       transform="matrix(0.93569638,0,0,0.79614104,764.78332,144.3564)"
       id="g3079">
      <rect
         style="fill:url(#linearGradient3107);fill-opacity:1;stroke:#88551a;stroke-width:2.29999995;stroke-linecap:round;stroke-linejoin:round;stroke-miterlimit:4;stroke-opacity:1;stroke-dasharray:none"
         id="rect3081"
         width="200.11122"
         height="231.93103"
         x="-585.48444"
         y="360.67914"
         transform="translate(0,540.36218)"
         ry="10.606598" />
      <g
         id="g3083">
        <path
           transform="translate(0,540.36218)"
           d="m -567,373.875 c 0,3.65889 -2.96611,6.625 -6.625,6.625 -3.65889,0 -6.625,-2.96611 -6.625,-6.625 0,-3.65889 2.96611,-6.625 6.625,-6.625 3.65889,0 6.625,2.96611 6.625,6.625 z"
           sodipodi:ry="6.625"
           sodipodi:rx="6.625"
           sodipodi:cy="373.875"
           sodipodi:cx="-573.625"
           id="path3085"
           style="fill:#eae9ec;fill-opacity:1;stroke:#514f4f;stroke-width:2.20000005;stroke-linecap:round;stroke-linejoin:round;stroke-miterlimit:4;stroke-opacity:1;stroke-dasharray:none"
           sodipodi:type="arc" />
        <path
           transform="translate(0,540.36218)"
           inkscape:connector-curvature="0"
           id="path3087"
           d="m -578.32496,378.71037 9.28078,-9.28077"
           style="fill:none;stroke:#514f4f;stroke-width:2.29999995;stroke-linecap:butt;stroke-linejoin:miter;stroke-miterlimit:4;stroke-opacity:1;stroke-dasharray:none" />
      </g>
      <g
         id="g3089"
         transform="translate(176.5,0)">
        <path
           sodipodi:type="arc"
           style="fill:#eae9ec;fill-opacity:1;stroke:#514f4f;stroke-width:2.20000005;stroke-linecap:round;stroke-linejoin:round;stroke-miterlimit:4;stroke-opacity:1;stroke-dasharray:none"
           id="path3091"
           sodipodi:cx="-573.625"
           sodipodi:cy="373.875"
           sodipodi:rx="6.625"
           sodipodi:ry="6.625"
           d="m -567,373.875 c 0,3.65889 -2.96611,6.625 -6.625,6.625 -3.65889,0 -6.625,-2.96611 -6.625,-6.625 0,-3.65889 2.96611,-6.625 6.625,-6.625 3.65889,0 6.625,2.96611 6.625,6.625 z"
           transform="translate(0,540.36218)" />
        <path
           style="fill:none;stroke:#514f4f;stroke-width:2.29999995;stroke-linecap:butt;stroke-linejoin:miter;stroke-miterlimit:4;stroke-opacity:1;stroke-dasharray:none"
           d="m -578.32496,378.71037 9.28078,-9.28077"
           id="path3093"
           inkscape:connector-curvature="0"
           transform="translate(0,540.36218)" />
      </g>
      <g
         id="g3095"
         transform="translate(0,207.18229)">
        <path
           sodipodi:type="arc"
           style="fill:#eae9ec;fill-opacity:1;stroke:#514f4f;stroke-width:2.20000005;stroke-linecap:round;stroke-linejoin:round;stroke-miterlimit:4;stroke-opacity:1;stroke-dasharray:none"
           id="path3097"
           sodipodi:cx="-573.625"
           sodipodi:cy="373.875"
           sodipodi:rx="6.625"
           sodipodi:ry="6.625"
           d="m -567,373.875 c 0,3.65889 -2.96611,6.625 -6.625,6.625 -3.65889,0 -6.625,-2.96611 -6.625,-6.625 0,-3.65889 2.96611,-6.625 6.625,-6.625 3.65889,0 6.625,2.96611 6.625,6.625 z"
           transform="translate(0,540.36218)" />
        <path
           style="fill:none;stroke:#514f4f;stroke-width:2.29999995;stroke-linecap:butt;stroke-linejoin:miter;stroke-miterlimit:4;stroke-opacity:1;stroke-dasharray:none"
           d="m -578.32496,378.71037 9.28078,-9.28077"
           id="path3099"
           inkscape:connector-curvature="0"
           transform="translate(0,540.36218)" />
      </g>
      <g
         transform="translate(176.5,207.18229)"
         id="g3101">
        <path
           transform="translate(0,540.36218)"
           d="m -567,373.875 c 0,3.65889 -2.96611,6.625 -6.625,6.625 -3.65889,0 -6.625,-2.96611 -6.625,-6.625 0,-3.65889 2.96611,-6.625 6.625,-6.625 3.65889,0 6.625,2.96611 6.625,6.625 z"
           sodipodi:ry="6.625"
           sodipodi:rx="6.625"
           sodipodi:cy="373.875"
           sodipodi:cx="-573.625"
           id="path3103"
           style="fill:#eae9ec;fill-opacity:1;stroke:#514f4f;stroke-width:2.20000005;stroke-linecap:round;stroke-linejoin:round;stroke-miterlimit:4;stroke-opacity:1;stroke-dasharray:none"
           sodipodi:type="arc" />
        <path
           transform="translate(0,540.36218)"
           inkscape:connector-curvature="0"
           id="path3105"
           d="m -578.32496,378.71037 9.28078,-9.28077"
           style="fill:none;stroke:#514f4f;stroke-width:2.29999995;stroke-linecap:butt;stroke-linejoin:miter;stroke-miterlimit:4;stroke-opacity:1;stroke-dasharray:none" />
      </g>
    </g>
    <g
       transform="matrix(0.93569638,0,0,0.79614104,954.28794,144.3564)"
       id="g3109">
      <rect
         style="fill:url(#linearGradient3165);fill-opacity:1;stroke:#88551a;stroke-width:2.29999995;stroke-linecap:round;stroke-linejoin:round;stroke-miterlimit:4;stroke-opacity:1;stroke-dasharray:none"
         id="rect3111"
         width="200.11122"
         height="231.93103"
         x="-585.48444"
         y="360.67914"
         transform="translate(0,540.36218)"
         ry="10.606598" />
      <g
         id="g3113">
        <path
           transform="translate(0,540.36218)"
           d="m -567,373.875 c 0,3.65889 -2.96611,6.625 -6.625,6.625 -3.65889,0 -6.625,-2.96611 -6.625,-6.625 0,-3.65889 2.96611,-6.625 6.625,-6.625 3.65889,0 6.625,2.96611 6.625,6.625 z"
           sodipodi:ry="6.625"
           sodipodi:rx="6.625"
           sodipodi:cy="373.875"
           sodipodi:cx="-573.625"
           id="path3115"
           style="fill:#eae9ec;fill-opacity:1;stroke:#514f4f;stroke-width:2.20000005;stroke-linecap:round;stroke-linejoin:round;stroke-miterlimit:4;stroke-opacity:1;stroke-dasharray:none"
           sodipodi:type="arc" />
        <path
           transform="translate(0,540.36218)"
           inkscape:connector-curvature="0"
           id="path3117"
           d="m -578.32496,378.71037 9.28078,-9.28077"
           style="fill:none;stroke:#514f4f;stroke-width:2.29999995;stroke-linecap:butt;stroke-linejoin:miter;stroke-miterlimit:4;stroke-opacity:1;stroke-dasharray:none" />
      </g>
      <g
         id="g3119"
         transform="translate(176.5,0)">
        <path
           sodipodi:type="arc"
           style="fill:#eae9ec;fill-opacity:1;stroke:#514f4f;stroke-width:2.20000005;stroke-linecap:round;stroke-linejoin:round;stroke-miterlimit:4;stroke-opacity:1;stroke-dasharray:none"
           id="path3121"
           sodipodi:cx="-573.625"
           sodipodi:cy="373.875"
           sodipodi:rx="6.625"
           sodipodi:ry="6.625"
           d="m -567,373.875 c 0,3.65889 -2.96611,6.625 -6.625,6.625 -3.65889,0 -6.625,-2.96611 -6.625,-6.625 0,-3.65889 2.96611,-6.625 6.625,-6.625 3.65889,0 6.625,2.96611 6.625,6.625 z"
           transform="translate(0,540.36218)" />
        <path
           style="fill:none;stroke:#514f4f;stroke-width:2.29999995;stroke-linecap:butt;stroke-linejoin:miter;stroke-miterlimit:4;stroke-opacity:1;stroke-dasharray:none"
           d="m -578.32496,378.71037 9.28078,-9.28077"
           id="path3123"
           inkscape:connector-curvature="0"
           transform="translate(0,540.36218)" />
      </g>
      <g
         id="g3125"
         transform="translate(0,207.18229)">
        <path
           sodipodi:type="arc"
           style="fill:#eae9ec;fill-opacity:1;stroke:#514f4f;stroke-width:2.20000005;stroke-linecap:round;stroke-linejoin:round;stroke-miterlimit:4;stroke-opacity:1;stroke-dasharray:none"
           id="path3127"
           sodipodi:cx="-573.625"
           sodipodi:cy="373.875"
           sodipodi:rx="6.625"
           sodipodi:ry="6.625"
           d="m -567,373.875 c 0,3.65889 -2.96611,6.625 -6.625,6.625 -3.65889,0 -6.625,-2.96611 -6.625,-6.625 0,-3.65889 2.96611,-6.625 6.625,-6.625 3.65889,0 6.625,2.96611 6.625,6.625 z"
           transform="translate(0,540.36218)" />
        <path
           style="fill:none;stroke:#514f4f;stroke-width:2.29999995;stroke-linecap:butt;stroke-linejoin:miter;stroke-miterlimit:4;stroke-opacity:1;stroke-dasharray:none"
           d="m -578.32496,378.71037 9.28078,-9.28077"
           id="path3129"
           inkscape:connector-curvature="0"
           transform="translate(0,540.36218)" />
      </g>
      <g
         transform="translate(176.5,207.18229)"
         id="g3131">
        <path
           transform="translate(0,540.36218)"
           d="m -567,373.875 c 0,3.65889 -2.96611,6.625 -6.625,6.625 -3.65889,0 -6.625,-2.96611 -6.625,-6.625 0,-3.65889 2.96611,-6.625 6.625,-6.625 3.65889,0 6.625,2.96611 6.625,6.625 z"
           sodipodi:ry="6.625"
           sodipodi:rx="6.625"
           sodipodi:cy="373.875"
           sodipodi:cx="-573.625"
           id="path3133"
           style="fill:#eae9ec;fill-opacity:1;stroke:#514f4f;stroke-width:2.20000005;stroke-linecap:round;stroke-linejoin:round;stroke-miterlimit:4;stroke-opacity:1;stroke-dasharray:none"
           sodipodi:type="arc" />
        <path
           transform="translate(0,540.36218)"
           inkscape:connector-curvature="0"
           id="path3135"
           d="m -578.32496,378.71037 9.28078,-9.28077"
           style="fill:none;stroke:#514f4f;stroke-width:2.29999995;stroke-linecap:butt;stroke-linejoin:miter;stroke-miterlimit:4;stroke-opacity:1;stroke-dasharray:none" />
      </g>
    </g>
    <g
       id="g3137"
       transform="matrix(0.93569638,0,0,0.79614104,1143.7925,144.3564)">
      <rect
         ry="10.606598"
         transform="translate(0,540.36218)"
         y="360.67914"
         x="-585.48444"
         height="231.93103"
         width="200.11122"
         id="rect3139"
         style="fill:url(#linearGradient3167);fill-opacity:1;stroke:#88551a;stroke-width:2.29999995;stroke-linecap:round;stroke-linejoin:round;stroke-miterlimit:4;stroke-opacity:1;stroke-dasharray:none" />
      <g
         id="g3141">
        <path
           sodipodi:type="arc"
           style="fill:#eae9ec;fill-opacity:1;stroke:#514f4f;stroke-width:2.20000005;stroke-linecap:round;stroke-linejoin:round;stroke-miterlimit:4;stroke-opacity:1;stroke-dasharray:none"
           id="path3143"
           sodipodi:cx="-573.625"
           sodipodi:cy="373.875"
           sodipodi:rx="6.625"
           sodipodi:ry="6.625"
           d="m -567,373.875 c 0,3.65889 -2.96611,6.625 -6.625,6.625 -3.65889,0 -6.625,-2.96611 -6.625,-6.625 0,-3.65889 2.96611,-6.625 6.625,-6.625 3.65889,0 6.625,2.96611 6.625,6.625 z"
           transform="translate(0,540.36218)" />
        <path
           style="fill:none;stroke:#514f4f;stroke-width:2.29999995;stroke-linecap:butt;stroke-linejoin:miter;stroke-miterlimit:4;stroke-opacity:1;stroke-dasharray:none"
           d="m -578.32496,378.71037 9.28078,-9.28077"
           id="path3145"
           inkscape:connector-curvature="0"
           transform="translate(0,540.36218)" />
      </g>
      <g
         transform="translate(176.5,0)"
         id="g3147">
        <path
           transform="translate(0,540.36218)"
           d="m -567,373.875 c 0,3.65889 -2.96611,6.625 -6.625,6.625 -3.65889,0 -6.625,-2.96611 -6.625,-6.625 0,-3.65889 2.96611,-6.625 6.625,-6.625 3.65889,0 6.625,2.96611 6.625,6.625 z"
           sodipodi:ry="6.625"
           sodipodi:rx="6.625"
           sodipodi:cy="373.875"
           sodipodi:cx="-573.625"
           id="path3149"
           style="fill:#eae9ec;fill-opacity:1;stroke:#514f4f;stroke-width:2.20000005;stroke-linecap:round;stroke-linejoin:round;stroke-miterlimit:4;stroke-opacity:1;stroke-dasharray:none"
           sodipodi:type="arc" />
        <path
           transform="translate(0,540.36218)"
           inkscape:connector-curvature="0"
           id="path3151"
           d="m -578.32496,378.71037 9.28078,-9.28077"
           style="fill:none;stroke:#514f4f;stroke-width:2.29999995;stroke-linecap:butt;stroke-linejoin:miter;stroke-miterlimit:4;stroke-opacity:1;stroke-dasharray:none" />
      </g>
      <g
         transform="translate(0,207.18229)"
         id="g3153">
        <path
           transform="translate(0,540.36218)"
           d="m -567,373.875 c 0,3.65889 -2.96611,6.625 -6.625,6.625 -3.65889,0 -6.625,-2.96611 -6.625,-6.625 0,-3.65889 2.96611,-6.625 6.625,-6.625 3.65889,0 6.625,2.96611 6.625,6.625 z"
           sodipodi:ry="6.625"
           sodipodi:rx="6.625"
           sodipodi:cy="373.875"
           sodipodi:cx="-573.625"
           id="path3155"
           style="fill:#eae9ec;fill-opacity:1;stroke:#514f4f;stroke-width:2.20000005;stroke-linecap:round;stroke-linejoin:round;stroke-miterlimit:4;stroke-opacity:1;stroke-dasharray:none"
           sodipodi:type="arc" />
        <path
           transform="translate(0,540.36218)"
           inkscape:connector-curvature="0"
           id="path3157"
           d="m -578.32496,378.71037 9.28078,-9.28077"
           style="fill:none;stroke:#514f4f;stroke-width:2.29999995;stroke-linecap:butt;stroke-linejoin:miter;stroke-miterlimit:4;stroke-opacity:1;stroke-dasharray:none" />
      </g>
      <g
         id="g3159"
         transform="translate(176.5,207.18229)">
        <path
           sodipodi:type="arc"
           style="fill:#eae9ec;fill-opacity:1;stroke:#514f4f;stroke-width:2.20000005;stroke-linecap:round;stroke-linejoin:round;stroke-miterlimit:4;stroke-opacity:1;stroke-dasharray:none"
           id="path3161"
           sodipodi:cx="-573.625"
           sodipodi:cy="373.875"
           sodipodi:rx="6.625"
           sodipodi:ry="6.625"
           d="m -567,373.875 c 0,3.65889 -2.96611,6.625 -6.625,6.625 -3.65889,0 -6.625,-2.96611 -6.625,-6.625 0,-3.65889 2.96611,-6.625 6.625,-6.625 3.65889,0 6.625,2.96611 6.625,6.625 z"
           transform="translate(0,540.36218)" />
        <path
           style="fill:none;stroke:#514f4f;stroke-width:2.29999995;stroke-linecap:butt;stroke-linejoin:miter;stroke-miterlimit:4;stroke-opacity:1;stroke-dasharray:none"
           d="m -578.32496,378.71037 9.28078,-9.28077"
           id="path3163"
           inkscape:connector-curvature="0"
           transform="translate(0,540.36218)" />
      </g>
    </g>
  </g>
</svg>
