<?xml version="1.0" encoding="UTF-8" standalone="no"?>
<!-- Created with Inkscape (http://www.inkscape.org/) -->

<svg
   xmlns:dc="http://purl.org/dc/elements/1.1/"
   xmlns:cc="http://creativecommons.org/ns#"
   xmlns:rdf="http://www.w3.org/1999/02/22-rdf-syntax-ns#"
   xmlns:svg="http://www.w3.org/2000/svg"
   xmlns="http://www.w3.org/2000/svg"
   xmlns:xlink="http://www.w3.org/1999/xlink"
   xmlns:sodipodi="http://sodipodi.sourceforge.net/DTD/sodipodi-0.dtd"
   xmlns:inkscape="http://www.inkscape.org/namespaces/inkscape"
   width="1680"
   height="1480"
   id="svg2"
   version="1.1"
   inkscape:version="0.48.2 r9819"
   sodipodi:docname="fore2.svg"
   inkscape:export-filename="/home/www-data/parallax/media/fore2.png"
   inkscape:export-xdpi="90"
   inkscape:export-ydpi="90">
  <defs
     id="defs4">
    <linearGradient
       id="linearGradient4077">
      <stop
         style="stop-color:#6e9f31;stop-opacity:1;"
         offset="0"
         id="stop4079" />
      <stop
         id="stop4085"
         offset="0.12765957"
         style="stop-color:#b8dca0;stop-opacity:1;" />
      <stop
         style="stop-color:#78a90a;stop-opacity:1;"
         offset="0.35966501"
         id="stop4087" />
      <stop
         id="stop4089"
         offset="0.80244982"
         style="stop-color:#57881d;stop-opacity:1;" />
      <stop
         style="stop-color:#3e432b;stop-opacity:1;"
         offset="1"
         id="stop4081" />
    </linearGradient>
    <linearGradient
       id="linearGradient4013">
      <stop
         style="stop-color:#ea9f31;stop-opacity:1;"
         offset="0"
         id="stop4015" />
      <stop
         style="stop-color:#eabc31;stop-opacity:1;"
         offset="1"
         id="stop4017" />
    </linearGradient>
    <linearGradient
       id="linearGradient3977">
      <stop
         style="stop-color:#425ab6;stop-opacity:1;"
         offset="0"
         id="stop3979" />
      <stop
         style="stop-color:#4293b6;stop-opacity:1;"
         offset="1"
         id="stop3981" />
    </linearGradient>
    <linearGradient
       id="linearGradient3940">
      <stop
         style="stop-color:#428f29;stop-opacity:1;"
         offset="0"
         id="stop3942" />
      <stop
         style="stop-color:#42ce29;stop-opacity:1;"
         offset="1"
         id="stop3944" />
    </linearGradient>
    <linearGradient
       id="linearGradient3891">
      <stop
         id="stop3893"
         offset="0"
         style="stop-color:#70f129;stop-opacity:1;" />
      <stop
         style="stop-color:#42c029;stop-opacity:1;"
         offset="0.34089959"
         id="stop3895" />
      <stop
         id="stop3897"
         offset="1"
         style="stop-color:#429229;stop-opacity:1;" />
    </linearGradient>
    <linearGradient
       id="linearGradient3879">
      <stop
         style="stop-color:#429229;stop-opacity:1;"
         offset="0"
         id="stop3881" />
      <stop
         id="stop3887"
         offset="0.87234044"
         style="stop-color:#42c029;stop-opacity:1;" />
      <stop
         style="stop-color:#70f129;stop-opacity:1;"
         offset="1"
         id="stop3883" />
    </linearGradient>
    <linearGradient
       id="linearGradient3853">
      <stop
         style="stop-color:#13ad34;stop-opacity:1;"
         offset="0"
         id="stop3855" />
      <stop
         style="stop-color:#134634;stop-opacity:1;"
         offset="1"
         id="stop3857" />
    </linearGradient>
    <linearGradient
       id="linearGradient3817">
      <stop
         style="stop-color:#aefa48;stop-opacity:1;"
         offset="0"
         id="stop3819" />
      <stop
         style="stop-color:#3f5748;stop-opacity:1;"
         offset="1"
         id="stop3821" />
    </linearGradient>
    <linearGradient
       inkscape:collect="always"
       xlink:href="#linearGradient3940"
       id="linearGradient3971"
       gradientUnits="userSpaceOnUse"
       x1="-1438"
       y1="376.04443"
       x2="-1198"
       y2="376.04443" />
    <linearGradient
       inkscape:collect="always"
       xlink:href="#linearGradient3940"
       id="linearGradient3973"
       gradientUnits="userSpaceOnUse"
       x1="-1255"
       y1="1075.7339"
       x2="-1152.9982"
       y2="1075.7339" />
    <linearGradient
       inkscape:collect="always"
       xlink:href="#linearGradient3977"
       id="linearGradient4099"
       gradientUnits="userSpaceOnUse"
       x1="-663.76617"
       y1="518.01044"
       x2="-529.83008"
       y2="460.7348" />
    <linearGradient
       inkscape:collect="always"
       xlink:href="#linearGradient4013"
       id="linearGradient4101"
       gradientUnits="userSpaceOnUse"
       x1="-586.63446"
       y1="476.64465"
       x2="-381.39478"
       y2="376.9426" />
    <linearGradient
       inkscape:collect="always"
       xlink:href="#linearGradient4077"
       id="linearGradient4103"
       gradientUnits="userSpaceOnUse"
       gradientTransform="translate(3.8890873,569)"
       x1="-502.14999"
       y1="235"
       x2="-409.85001"
       y2="235" />
    <linearGradient
       inkscape:collect="always"
       xlink:href="#linearGradient4077"
       id="linearGradient4105"
       gradientUnits="userSpaceOnUse"
       x1="-502.14999"
       y1="235"
       x2="-409.85001"
       y2="235" />
  </defs>
  <sodipodi:namedview
     id="base"
     pagecolor="#ffffff"
     bordercolor="#666666"
     borderopacity="1.0"
     inkscape:pageopacity="0.0"
     inkscape:pageshadow="2"
     inkscape:zoom="0.35355339"
     inkscape:cx="1100.0234"
     inkscape:cy="699.62512"
     inkscape:document-units="px"
     inkscape:current-layer="layer1"
     showgrid="false"
     borderlayer="true"
     inkscape:showpageshadow="false"
     inkscape:window-width="1515"
     inkscape:window-height="745"
     inkscape:window-x="188"
     inkscape:window-y="177"
     inkscape:window-maximized="0"
     showguides="true"
     inkscape:guide-bbox="true">
    <sodipodi:guide
       orientation="1,0"
       position="0,30.5"
       id="guide3785" />
    <sodipodi:guide
       orientation="0,1"
       position="59.25,0"
       id="guide3787" />
    <sodipodi:guide
       orientation="1,0"
       position="1680,18.5"
       id="guide3789" />
    <sodipodi:guide
       orientation="0,1"
       position="1117,1480"
       id="guide4759" />
  </sodipodi:namedview>
  <metadata
     id="metadata7">
    <rdf:RDF>
      <cc:Work
         rdf:about="">
        <dc:format>image/svg+xml</dc:format>
        <dc:type
           rdf:resource="http://purl.org/dc/dcmitype/StillImage" />
        <dc:title></dc:title>
      </cc:Work>
    </rdf:RDF>
  </metadata>
  <g
     inkscape:label="Camada 1"
     inkscape:groupmode="layer"
     id="layer1"
     transform="translate(0,427.63782)">
    <rect
       style="fill:#6ed4f8;fill-opacity:1;stroke:#29521a;stroke-width:2.29999995000000013;stroke-linecap:round;stroke-linejoin:round;stroke-miterlimit:4;stroke-opacity:1;stroke-dasharray:none"
       id="rect4761"
       width="1680"
       height="1480"
       x="0"
       y="0"
       transform="translate(0,-427.63782)" />
    <path
       style="fill:#fffff8;fill-opacity:1;stroke:#359be7;stroke-width:4.98484421;stroke-linecap:round;stroke-linejoin:round;stroke-miterlimit:4;stroke-opacity:1;stroke-dasharray:none"
       d="m 204.23266,-121.91611 c -31.05738,0 -58.34539,20.19145 -73.96024,50.651412 -7.77446,-3.813692 -16.25649,-5.904152 -25.13456,-5.904152 -35.36931,0 -64.42897,33.278926 -67.67074,75.807628 C 14.74247,14.580962 0,40.261294 0,69.22024 c 0,41.86183 30.81489,76.85573 72.00066,85.51134 -0.55888,2.93689 -0.84486,5.96907 -0.84486,9.08222 0,25.065 19.01539,45.38288 42.47758,45.38288 10.6535,0 20.38822,-4.18124 27.84512,-11.10207 17.23897,25.20251 46.61584,41.79519 79.95641,41.79519 16.77981,0 32.54993,-4.20761 46.27943,-11.59643 8.69171,4.97197 18.38223,7.75449 28.59607,7.75449 14.84554,0 28.57546,-5.87052 39.75526,-15.81974 8.63685,8.22523 20.23949,13.26316 32.99639,13.26316 18.53287,0 34.61728,-10.6327 42.72401,-26.22969 32.60043,-8.51833 59.23741,-28.50525 73.30313,-54.39448 36.18417,-1.88524 65.05405,-38.60615 65.05405,-83.64687 0,-46.246689 -30.43628,-83.745745 -67.97583,-83.745745 -1.98054,0 -3.94128,0.106259 -5.87879,0.310745 -3.73735,-28.380428 -25.59641,-50.171172 -52.00569,-50.171172 -6.83156,0 -13.36174,1.457928 -19.34961,4.110307 -6.60292,-30.037097 -32.52406,-52.445265 -63.49339,-52.445265 -28.39534,0 -52.53198,18.843457 -61.43994,45.128634 -15.25828,-32.499344 -43.47822,-54.323854 -75.76734,-54.323854 z"
       id="path5271"
       inkscape:connector-curvature="0" />
    <path
       style="fill:#fffff8;fill-opacity:1;stroke:#359be7;stroke-width:6.19889498;stroke-linecap:round;stroke-linejoin:round;stroke-miterlimit:4;stroke-opacity:1;stroke-dasharray:none"
       d="m 1336.7895,-402.10362 c -40.7924,0 -75.4644,28.16759 -88.2102,67.42859 -7.7594,-3.19697 -16.0245,-4.91811 -24.5855,-4.91811 -45.3398,0 -82.0898,48.33673 -82.0898,107.95526 0,8.94253 0.8305,17.61914 2.3892,25.92873 -4.2359,-0.87949 -8.6016,-1.35553 -13.0671,-1.35553 -39.0732,0 -70.7481,35.22005 -70.7481,78.65511 0,43.435062 31.6749,78.637732 70.7481,78.637732 15.1467,0 29.1819,-5.29227 40.6909,-14.30251 5.3569,47.93438 43.3717,85.08515 89.464,85.08515 15.2471,0 29.6065,-4.06705 42.1951,-11.2438899 14.3564,27.5161899 40.0048,45.8444899 69.2587,45.8444899 42.01,0 76.5974,-37.79035 80.9688,-86.31903 4.2629,0.91657 8.6532,1.39028 13.1408,1.39028 18.1228,0 34.6943,-7.81518 47.4308,-20.73255 14.084,20.26971 36.1402,33.31459 60.9405,33.31459 38.5309,0 70.4564,-31.50989 76.1166,-72.64214 40.3272,-10.53287 69.8043,-44.097632 69.8043,-83.868662 0,-29.57213 -16.2975,-55.70425 -41.2366,-71.49516 -7.6107,-53.58807 -54.7273,-94.85187 -111.7193,-94.85187 -19.4139,0 -37.6885,4.79341 -53.6399,13.22504 -14.7892,-8.37829 -32.2779,-13.22504 -51.0296,-13.22504 -13.4757,0 -26.3069,2.50331 -37.9477,7.02091 -12.1737,-40.35401 -47.357,-69.53139 -88.874,-69.53139 z"
       id="path5296"
       inkscape:connector-curvature="0" />
    <path
       inkscape:connector-curvature="0"
       id="path5322"
       d="m 1422.1141,276.25786 c -23.1542,0 -43.4981,15.05329 -55.1394,37.76203 -5.7961,-2.84321 -12.1197,-4.40171 -18.7385,-4.40171 -26.3688,0 -48.0336,24.81037 -50.4504,56.51669 -16.9419,11.88534 -27.9328,31.03073 -27.9328,52.62043 0,31.20915 22.9733,57.29808 53.6785,63.75107 -0.4167,2.18954 -0.6299,4.45011 -0.6299,6.77105 0,18.68665 14.1765,33.83419 31.6682,33.83419 7.9425,0 15.2,-3.11723 20.7593,-8.2769 12.8521,18.78917 34.7534,31.15947 59.6097,31.15947 12.5098,0 24.2669,-3.13689 34.5027,-8.64546 6.4799,3.70674 13.7044,5.78119 21.3191,5.78119 11.0678,0 21.3038,-4.37664 29.6386,-11.79405 6.439,6.13213 15.0891,9.88805 24.5998,9.88805 13.8168,0 25.8081,-7.92697 31.8519,-19.55496 24.3045,-6.35065 44.1631,-21.25145 54.6495,-40.55259 26.9763,-1.4055 48.4996,-28.78195 48.4996,-62.36106 0,-34.47819 -22.6911,-62.43477 -50.6779,-62.43477 -1.4765,0 -2.9383,0.0792 -4.3827,0.23167 -2.7864,-21.1584 -19.0829,-37.404 -38.7717,-37.404 -5.0932,0 -9.9616,1.08693 -14.4257,3.06435 -4.9227,-22.39349 -24.2476,-39.0994 -47.3361,-39.0994 -21.1695,0 -39.164,14.04832 -45.8052,33.64465 -11.3755,-24.22916 -32.4142,-40.49994 -56.4866,-40.49994 z"
       style="fill:#fffff8;fill-opacity:1;stroke:#359be7;stroke-width:3.71633935;stroke-linecap:round;stroke-linejoin:round;stroke-miterlimit:4;stroke-opacity:1;stroke-dasharray:none" />
    <path
       style="fill:#fffff8;fill-opacity:1;stroke:#359be7;stroke-width:4.070508;stroke-linecap:round;stroke-linejoin:round;stroke-miterlimit:4;stroke-opacity:1;stroke-dasharray:none"
       d="m 293.59371,400.28142 c -25.36075,0 -47.6435,16.48787 -60.39422,41.36076 -6.34845,-3.11417 -13.27468,-4.82119 -20.5243,-4.82119 -28.88176,0 -52.6112,27.1748 -55.25836,61.90275 -18.55642,13.01802 -30.59478,33.98798 -30.59478,57.63519 0,34.18339 25.16273,62.7586 58.79407,69.82657 -0.45637,2.3982 -0.68989,4.87421 -0.68989,7.41633 0,20.4675 15.52752,37.05861 34.6862,37.05861 8.6994,0 16.64855,-3.41431 22.73768,-9.06569 14.07695,20.57978 38.06544,34.12898 65.29052,34.12898 13.70199,0 26.57957,-3.43584 37.79076,-9.46938 7.09745,4.06 15.01048,6.33214 23.35084,6.33214 12.12257,0 23.33409,-4.79373 32.46325,-12.91803 7.05261,6.71653 16.52711,10.83039 26.9441,10.83039 15.13353,0 28.26768,-8.68242 34.88742,-21.41856 26.62073,-6.95587 48.37189,-23.27673 59.85761,-44.41727 29.54718,-1.53944 53.12167,-31.52489 53.12167,-68.30409 0,-37.76398 -24.85357,-68.38483 -55.50754,-68.38483 -1.61723,0 -3.21829,0.0868 -4.80041,0.25374 -3.05188,-23.1748 -20.90151,-40.96861 -42.46665,-40.96861 -5.57853,0 -10.91093,1.19051 -15.80043,3.35638 -5.39186,-24.5276 -26.55843,-42.82559 -51.84724,-42.82559 -23.18703,0 -42.89641,15.38713 -50.17048,36.85099 -12.45957,-26.5382 -35.50329,-44.35959 -61.86982,-44.35959 z"
       id="path5324"
       inkscape:connector-curvature="0" />
    <path
       inkscape:connector-curvature="0"
       id="path5326"
       d="m 495.26543,-428.65826 c -27.36226,0 -50.61914,18.89394 -59.16862,45.22898 -5.20477,-2.14443 -10.74873,-3.29891 -16.49118,-3.29891 -30.41251,0 -55.06326,32.42275 -55.06326,72.41299 0,5.99836 0.55708,11.81836 1.6026,17.39217 -2.84131,-0.58993 -5.76968,-0.90924 -8.765,-0.90924 -26.20907,0 -47.4556,23.6245 -47.4556,52.75937 0,29.13487 21.24653,52.74771 47.4556,52.74771 10.15993,0 19.5743,-3.54989 27.29418,-9.59367 3.59324,32.15287 29.09237,57.07244 60.00963,57.07244 10.22728,0 19.85911,-2.72805 28.30315,-7.54205 9.62982,18.457 26.83396,30.75104 46.45655,30.75104 28.17899,0 51.37913,-25.34857 54.31133,-57.90009 2.85941,0.61481 5.80429,0.93256 8.81443,0.93256 12.1562,0 23.27185,-5.24218 31.81509,-13.90674 9.4471,13.59628 24.24171,22.34638 40.87697,22.34638 25.84531,0 47.25993,-21.13584 51.05662,-48.72606 27.05021,-7.06512 46.82252,-29.57931 46.82252,-56.25646 0,-19.83606 -10.93185,-37.36466 -27.66021,-47.9567 -5.10502,-35.9452 -36.70935,-63.62365 -74.93779,-63.62365 -13.02223,0 -25.28026,3.21527 -35.97996,8.87094 -9.92013,-5.6199 -21.65099,-8.87094 -34.22904,-8.87094 -9.03908,0 -17.64585,1.67914 -25.45413,4.7094 -8.16573,-27.0682 -31.76558,-46.63947 -59.61388,-46.63947 z"
       style="fill:#fffff8;fill-opacity:1;stroke:#359be7;stroke-width:4.15802383;stroke-linecap:round;stroke-linejoin:round;stroke-miterlimit:4;stroke-opacity:1;stroke-dasharray:none" />
    <path
       style="fill:#fffff8;fill-opacity:1;stroke:#359be7;stroke-width:4.15802383;stroke-linecap:round;stroke-linejoin:round;stroke-miterlimit:4;stroke-opacity:1;stroke-dasharray:none"
       d="m 829.01983,-29.850036 c -27.36226,0 -50.61914,18.89394 -59.16862,45.22898 -5.20477,-2.14443 -10.74873,-3.29891 -16.49118,-3.29891 -30.41251,0 -55.06326,32.42275 -55.06326,72.41299 0,5.99836 0.55708,11.81836 1.6026,17.392166 -2.84131,-0.58993 -5.76968,-0.90924 -8.765,-0.90924 -26.20907,0 -47.4556,23.6245 -47.4556,52.75937 0,29.13487 21.24653,52.74771 47.4556,52.74771 10.15993,0 19.5743,-3.54989 27.29418,-9.59367 3.59324,32.15287 29.09237,57.07244 60.00963,57.07244 10.22728,0 19.85911,-2.72805 28.30315,-7.54205 9.62982,18.457 26.83396,30.75104 46.45655,30.75104 28.17899,0 51.37913,-25.34857 54.31133,-57.90009 2.85941,0.61481 5.80429,0.93256 8.81443,0.93256 12.1562,0 23.27185,-5.24218 31.81509,-13.90674 9.4471,13.59628 24.24171,22.34638 40.87697,22.34638 25.8453,0 47.2599,-21.13584 51.0566,-48.72606 27.0502,-7.06512 46.8225,-29.57931 46.8225,-56.25646 0,-19.83606 -10.9318,-37.364656 -27.6602,-47.956696 -5.105,-35.9452 -36.7093,-63.62365 -74.93776,-63.62365 -13.02223,0 -25.28026,3.21527 -35.97996,8.87094 -9.92013,-5.6199 -21.65099,-8.87094 -34.22904,-8.87094 -9.03908,0 -17.64585,1.67914 -25.45413,4.7094 -8.16573,-27.0682 -31.76558,-46.63947 -59.61388,-46.63947 z"
       id="path5328"
       inkscape:connector-curvature="0" />
    <path
       inkscape:connector-curvature="0"
       id="path5332"
       d="m 703.77466,839.18093 c -24.09483,0 -45.2653,15.66485 -57.37955,39.29618 -6.03155,-2.95872 -12.61205,-4.58053 -19.4998,-4.58053 -27.44008,0 -49.98503,25.81833 -52.50005,58.81278 -17.63015,12.3682 -29.06759,32.29141 -29.06759,54.75823 0,32.47711 23.90669,59.62591 55.85927,66.34111 -0.43359,2.2784 -0.65546,4.6309 -0.65546,7.0461 0,19.4458 14.75245,35.2088 32.95479,35.2088 8.26516,0 15.81751,-3.2439 21.6027,-8.6132 13.37427,19.5525 36.16534,32.4254 62.03144,32.4254 13.01803,0 25.25281,-3.2643 35.90438,-8.9967 6.74316,3.8573 14.2612,6.016 22.18523,6.016 11.51746,0 22.16934,-4.5544 30.8428,-12.2732 6.70057,6.3813 15.70213,10.2898 25.59914,10.2898 14.37812,0 26.85666,-8.249 33.14597,-20.3494 25.29191,-6.6087 45.95734,-22.1148 56.86974,-42.2001 28.07228,-1.4626 50.47002,-29.9513 50.47002,-64.89461 0,-35.87893 -23.61297,-64.97129 -52.7368,-64.97129 -1.5365,0 -3.05765,0.0824 -4.56079,0.24107 -2.89953,-22.01799 -19.85819,-38.9236 -40.34687,-38.9236 -5.30007,0 -10.3663,1.13109 -15.01174,3.18885 -5.12271,-23.30327 -25.23272,-40.68789 -49.2592,-40.68789 -22.02961,0 -40.75517,14.61906 -47.66614,35.01152 -11.83763,-25.21351 -33.73109,-42.14532 -58.78149,-42.14532 z"
       style="fill:#fffff8;fill-opacity:1;stroke:#359be7;stroke-width:3.86732244;stroke-linecap:round;stroke-linejoin:round;stroke-miterlimit:4;stroke-opacity:1;stroke-dasharray:none" />
    <path
       inkscape:connector-curvature="0"
       id="path5334"
       d="m 1021.1449,445.04072 c -22.54581,0 -41.70891,15.56814 -48.75351,37.26758 -4.2886,-1.76696 -8.8567,-2.71823 -13.5883,-2.71823 -25.0592,0 -45.3708,26.71556 -45.3708,59.66651 0,4.9425 0.459,9.7381 1.3205,14.3308 -2.3412,-0.4861 -4.7541,-0.7492 -7.2221,-0.7492 -21.5957,0 -39.1023,19.466 -39.1023,43.4724 0,24.0064 17.5066,43.4628 39.1023,43.4628 8.3715,0 16.1287,-2.925 22.4897,-7.9049 2.9607,26.4932 23.9714,47.0263 49.4465,47.0263 8.427,0 16.3634,-2.2479 23.32111,-6.2145 7.9347,15.2081 22.1105,25.3381 38.279,25.3381 23.2188,0 42.3352,-20.8866 44.7512,-47.7082 2.3561,0.5066 4.7826,0.7684 7.2629,0.7684 10.0163,0 19.1754,-4.3195 26.2148,-11.4589 7.7842,11.203 19.9746,18.4129 33.6816,18.4129 21.2959,0 38.941,-17.4154 42.0694,-40.1491 22.2887,-5.8215 38.5806,-24.3726 38.5806,-46.3539 0,-16.3444 -9.0075,-30.7876 -22.7913,-39.5152 -4.2064,-29.61793 -30.2476,-52.42431 -61.7469,-52.42431 -10.73,0 -20.8303,2.6493 -29.6466,7.30944 -8.174,-4.63065 -17.8399,-7.30944 -28.2038,-7.30944 -7.448,0 -14.5398,1.38357 -20.9736,3.88044 -6.7284,-22.30354 -26.1741,-38.42979 -49.1204,-38.42979 z"
       style="fill:#fffff8;fill-opacity:1;stroke:#359be7;stroke-width:3.42611003;stroke-linecap:round;stroke-linejoin:round;stroke-miterlimit:4;stroke-opacity:1;stroke-dasharray:none" />
    <path
       style="fill:#fffff8;fill-opacity:1;stroke:#359be7;stroke-width:5.15012026;stroke-linecap:round;stroke-linejoin:round;stroke-miterlimit:4;stroke-opacity:1;stroke-dasharray:none"
       d="m 1214.537,712.27036 c -32.0872,0 -60.2798,20.86091 -76.4125,52.33079 -8.0321,-3.94013 -16.7954,-6.0999 -25.9679,-6.0999 -36.542,0 -66.5651,34.38232 -69.9143,78.32108 -23.4782,16.47076 -38.7094,43.00253 -38.7094,72.92164 0,43.24978 31.8366,79.40393 74.3878,88.34652 -0.5774,3.03431 -0.8728,6.16701 -0.8728,9.38331 0,25.896 19.6458,46.8877 43.886,46.8877 11.0066,0 21.0642,-4.3199 28.7683,-11.4702 17.8105,26.038 48.1614,43.1809 82.6073,43.1809 17.3361,0 33.6292,-4.3471 47.814,-11.9809 8.9798,5.1368 18.9917,8.0115 29.5441,8.0115 15.3378,0 29.523,-6.0651 41.0734,-16.3442 8.9232,8.498 20.9105,13.7029 34.0905,13.7029 19.1473,0 35.765,-10.9852 44.1404,-27.0993 33.6813,-8.8008 61.2016,-29.4503 75.7336,-56.19799 37.3838,-1.94775 67.211,-39.88618 67.211,-86.42024 0,-47.78004 -31.4454,-86.52239 -70.2297,-86.52239 -2.0461,0 -4.0719,0.10974 -6.0736,0.32104 -3.8613,-29.3214 -26.4452,-51.83463 -53.73,-51.83463 -7.058,0 -13.8048,1.50628 -19.9911,4.2466 -6.8219,-31.03301 -33.6025,-54.18414 -65.5986,-54.18414 -29.3369,0 -54.2738,19.46823 -63.4772,46.62491 -15.7641,-33.57688 -44.9196,-56.125 -78.2793,-56.125 z"
       id="path5336"
       inkscape:connector-curvature="0" />
    <path
       style="fill:#fffff8;fill-opacity:1;stroke:#359be7;stroke-width:4.73462439;stroke-linecap:round;stroke-linejoin:round;stroke-miterlimit:4;stroke-opacity:1;stroke-dasharray:none"
       d="m 293.63481,1100.1068 c 31.1566,0 57.63857,-21.514 67.37365,-51.501 5.92652,2.4418 12.23931,3.7564 18.778,3.7564 34.62993,0 62.69901,-36.9189 62.69901,-82.45461 0,-6.83016 -0.63429,-13.45732 -1.82483,-19.80408 3.23536,0.67175 6.56981,1.03534 9.98039,1.03534 29.84362,0 54.03642,-26.90054 54.03642,-60.07557 0,-33.17502 -24.1928,-60.06229 -54.03642,-60.06229 -11.56877,0 -22.28864,4.04213 -31.07906,10.92397 -4.09146,-36.61159 -33.12665,-64.98678 -68.33131,-64.98678 -11.64548,0 -22.61298,3.10643 -32.22801,8.58797 -10.96515,-21.01644 -30.55503,-35.01532 -52.89867,-35.01532 -32.08662,0 -58.50404,28.86368 -61.84277,65.9291 -3.25595,-0.70008 -6.60919,-1.06187 -10.03677,-1.06187 -13.84177,0 -26.49894,5.96922 -36.22686,15.83533 -10.75718,-15.48169 -27.60339,-25.44523 -46.54542,-25.44523 -29.429279,0 -53.813469,24.06676 -58.136681,55.48301 C 22.514186,869.29604 1.5e-5,894.93226 1.5e-5,925.30875 c 0,22.58672 12.447682,42.54613 31.495849,54.60701 5.812926,40.92974 41.79989,72.44644 85.329496,72.44644 14.82804,0 28.7859,-3.6612 40.96936,-10.1011 11.29585,6.3992 24.65339,10.1011 38.97551,10.1011 10.29257,0 20.0929,-1.912 28.98393,-5.3625 9.29813,30.8218 36.17062,53.1071 67.88066,53.1071 z"
       id="path5338"
       inkscape:connector-curvature="0" />
  </g>
</svg>
